<?xml version="1.0" encoding="utf-8"?>
<!-- Generator: Adobe Illustrator 27.0.1, SVG Export Plug-In . SVG Version: 6.00 Build 0)  -->
<svg version="1.1" id="LOGO_UNITO_VERTICALE" xmlns="http://www.w3.org/2000/svg" xmlns:xlink="http://www.w3.org/1999/xlink"
	 x="0px" y="0px" viewBox="0 0 333.5 417" width="85" height="127" style="enable-background:new 0 0 333.5 417;" xml:space="preserve">
<style type="text/css">
	.st0{fill:#54565A;}
	.st1{fill:#EA0029;}
</style>
<g id="UNIVERSITA_x27__DI_TORINO">
</g>
<g>
	<g>
		<g>
			<path class="st0" d="M0,367.1h19.1c4.5,0,8.7,1.1,12.5,3.3c3.8,2.2,6.8,5.1,9,8.9s3.3,7.9,3.3,12.4s-1.1,8.7-3.3,12.4
				s-5.2,6.7-9,8.9s-8,3.3-12.5,3.3H0V367.1z M27.7,406.8c2.6-1.5,4.7-3.6,6.1-6.3c1.5-2.7,2.2-5.6,2.2-8.8c0-3.2-0.8-6.1-2.2-8.8
				c-1.5-2.7-3.5-4.8-6.1-6.3s-5.4-2.3-8.6-2.3H7.8v34.8h11.3C22.2,409.1,25.1,408.4,27.7,406.8z"/>
			<path class="st0" d="M50.5,416.3v-49.2h7.8v49.2H50.5z"/>
			<path class="st1" d="M80.8,367.1h37.7v7.6h-14.9v41.7h-7.8v-41.7h-15V367.1L80.8,367.1z"/>
			<path class="st1" d="M120.2,378.9c2.2-3.9,5.3-6.9,9.2-9.1s8.2-3.3,12.8-3.3c4.7,0,9,1.1,12.9,3.3c3.9,2.2,7,5.2,9.2,9.1
				s3.4,8.1,3.4,12.8c0,4.7-1.1,8.9-3.4,12.8c-2.2,3.9-5.3,6.9-9.2,9.1s-8.2,3.3-12.9,3.3s-9-1.1-12.8-3.3c-3.9-2.2-7-5.2-9.2-9.1
				s-3.3-8.1-3.3-12.8C116.9,387,118,382.8,120.2,378.9z M127,400.6c1.6,2.7,3.7,4.8,6.4,6.4c2.7,1.5,5.7,2.3,8.9,2.3
				s6.2-0.8,8.9-2.3s4.8-3.7,6.4-6.4c1.6-2.7,2.3-5.7,2.3-8.9c0-3.2-0.8-6.2-2.3-8.9c-1.6-2.7-3.7-4.8-6.4-6.4s-5.7-2.3-8.9-2.3
				s-6.2,0.8-8.9,2.3c-2.7,1.6-4.8,3.7-6.4,6.4c-1.6,2.7-2.3,5.7-2.3,8.9S125.4,397.9,127,400.6z"/>
			<path class="st0" d="M174.3,416.3v-49.2h17.9c2.8,0,5.4,0.7,7.7,2s4.1,3.1,5.5,5.3c1.3,2.3,2,4.8,2,7.6c0,2.5-0.6,4.7-1.8,6.8
				c-1.2,2-2.7,3.6-4.5,4.8c-1.8,1.1-3.6,1.8-5.3,1.8h-1l0,0c1,0.1,1.9,0.3,2.5,0.7c0.6,0.3,1.2,0.9,1.7,1.5l13.9,18.8h-6.1
				c-1,0-2-0.2-2.8-0.5s-1.6-1-2.2-1.9l-12.6-17h-7.1v19.4L174.3,416.3L174.3,416.3z M182.1,389.4h9.8c1.4,0,2.8-0.3,4-1
				s2.1-1.5,2.8-2.7c0.7-1.1,1-2.4,1-3.8s-0.3-2.7-1-3.8c-0.7-1.1-1.6-2-2.8-2.6s-2.5-0.9-4-0.9h-9.7L182.1,389.4L182.1,389.4z"/>
			<path class="st0" d="M216.8,416.3v-49.2h7.8v49.2H216.8z"/>
			<path class="st0" d="M275.5,367.1v49.2h-5.9c-0.5,0-0.9-0.1-1.4-0.5c-0.5-0.3-0.9-0.8-1.3-1.3l-25.4-37.3h-0.2
				c0.7,1.6,1,3.3,1,5.1v33.9h-7.7V367h6.1c1,0,1.9,0.2,2.6,0.5s1.4,1,2,1.9l23.7,34.8h0.1c-0.8-1.8-1.2-3.6-1.2-5.4V367
				L275.5,367.1L275.5,367.1z"/>
			<path class="st0" d="M285.5,378.9c2.2-3.9,5.3-6.9,9.2-9.1c3.9-2.2,8.2-3.3,12.8-3.3c4.7,0,9,1.1,12.9,3.3s7,5.2,9.2,9.1
				s3.4,8.1,3.4,12.8c0,4.7-1.1,8.9-3.4,12.8c-2.2,3.9-5.3,6.9-9.2,9.1c-3.9,2.2-8.2,3.3-12.9,3.3c-4.7,0-9-1.1-12.8-3.3
				s-7-5.2-9.2-9.1s-3.3-8.1-3.3-12.8C282.1,387,283.2,382.8,285.5,378.9z M292.2,400.6c1.6,2.7,3.7,4.8,6.4,6.4
				c2.7,1.5,5.7,2.3,8.9,2.3s6.2-0.8,8.9-2.3c2.7-1.5,4.8-3.7,6.4-6.4c1.6-2.7,2.3-5.7,2.3-8.9c0-3.2-0.8-6.2-2.3-8.9
				c-1.6-2.7-3.7-4.8-6.4-6.4c-2.7-1.6-5.7-2.3-8.9-2.3s-6.2,0.8-8.9,2.3c-2.7,1.6-4.8,3.7-6.4,6.4c-1.6,2.7-2.3,5.7-2.3,8.9
				S290.7,397.9,292.2,400.6z"/>
		</g>
		<g>
			<path class="st1" d="M8.4,336.2c0.9,1.7,2.2,2.9,3.9,3.9c1.7,0.9,3.6,1.4,5.8,1.4s4.1-0.5,5.8-1.4s3-2.2,3.9-3.9
				c0.9-1.7,1.4-3.5,1.4-5.7v-27.1h7v27.1c0,3.5-0.8,6.6-2.2,9.3c-1.5,2.7-3.6,4.8-6.3,6.3s-5.9,2.2-9.4,2.2c-3.5,0-6.7-0.8-9.4-2.2
				c-2.7-1.5-4.9-3.6-6.3-6.3c-1.5-2.7-2.2-5.8-2.2-9.3v-27.1h7v27.1C7,332.7,7.5,334.6,8.4,336.2z"/>
			<path class="st1" d="M80.6,303.4v44.5h-5.3c-0.4,0-0.9-0.1-1.2-0.4c-0.4-0.3-0.8-0.7-1.1-1.1l-22.9-33.7h-0.3
				c0.6,1.5,0.9,3,0.9,4.7V348h-7v-44.5h5.5c0.9,0,1.7,0.1,2.3,0.5c0.6,0.3,1.2,0.9,1.8,1.7l21.4,31.4h0.1c-0.8-1.6-1.1-3.3-1.1-4.9
				v-28.7L80.6,303.4L80.6,303.4z"/>
			<path class="st1" d="M89.7,347.9v-44.5h7v44.5H89.7z"/>
			<path class="st0" d="M144.3,303.4L125,347.9h-6.2l-19.3-44.5h4.7c1,0,1.8,0.2,2.5,0.7s1.2,1.1,1.6,2l12.2,28.3
				c0.7,1.6,1.1,3.4,1.3,5.6h0.2c0.1-2.1,0.6-4,1.3-5.6l12.2-28.3c0.4-0.8,0.9-1.5,1.6-1.9c0.7-0.5,1.5-0.7,2.5-0.7L144.3,303.4
				L144.3,303.4z"/>
			<path class="st0" d="M147.1,347.9v-44.5h28v6.9h-21v11.5h17.1v6.8h-17.1v12.5h21v6.9L147.1,347.9L147.1,347.9z"/>
			<path class="st0" d="M181.4,347.9v-44.5h16.2c2.5,0,4.9,0.6,7,1.8c2.1,1.2,3.8,2.8,5,4.8s1.8,4.3,1.8,6.9c0,2.2-0.5,4.3-1.6,6.1
				c-1.1,1.8-2.4,3.3-4.1,4.3c-1.6,1-3.2,1.6-4.8,1.6H200l0,0c0.9,0.1,1.7,0.3,2.2,0.6c0.6,0.3,1.1,0.8,1.5,1.3l12.5,17h-5.5
				c-1,0-1.8-0.1-2.5-0.5c-0.8-0.3-1.4-0.9-2-1.7l-11.4-15.1h-6.4V348L181.4,347.9L181.4,347.9z M188.5,323.5h8.8
				c1.3,0,2.5-0.3,3.6-0.9s1.9-1.4,2.5-2.4s1-2.1,1-3.4s-0.3-2.4-1-3.4c-0.6-1-1.5-1.8-2.5-2.3c-1.1-0.6-2.3-0.8-3.6-0.8h-8.8V323.5
				L188.5,323.5z"/>
			<path class="st0" d="M222.4,346.6c-2.5-1.2-4.7-2.9-6.5-4.9l1.5-2.6c0.3-0.5,0.7-0.8,1.1-1c0.5-0.2,1-0.4,1.6-0.4
				c0.8,0,1.5,0.2,2.2,0.7c1.2,0.9,2.6,1.6,4.1,2.2s2.9,1,3.9,1c2.4,0,4.4-0.6,5.9-1.7s2.2-2.8,2.2-4.9c0-1.5-0.6-2.8-1.9-4
				c-1.3-1.1-3.3-2.3-6.1-3.4c-4.3-1.6-7.4-3.4-9.5-5.4c-2-2-3.1-4.5-3.1-7.3c0-2.3,0.6-4.4,1.7-6.2c1.1-1.8,2.7-3.2,4.8-4.3
				c2-1,4.4-1.5,7-1.5c2.1,0,4.2,0.4,6.4,1.2c2.2,0.8,4,2,5.4,3.5l-1.2,2.2c-0.4,0.7-0.9,1.2-1.4,1.5c-0.6,0.4-1.2,0.5-1.8,0.5
				c-0.5,0-1-0.1-1.6-0.4c-0.9-0.6-1.9-1-3-1.3s-2-0.4-2.8-0.4c-1.9,0-3.5,0.5-4.7,1.4c-1.2,1-1.8,2.2-1.8,3.8
				c0,1.2,0.6,2.3,1.8,3.3c1.2,1,3.1,1.9,5.7,2.8c4.4,1.4,7.7,3.3,9.9,5.6c2.2,2.3,3.2,5.1,3.2,8.3c0,2.6-0.7,5-2,7.1
				c-1.3,2-3.1,3.7-5.4,4.8c-2.3,1.1-5,1.7-8,1.7C227.5,348.5,224.9,347.8,222.4,346.6z"/>
			<path class="st0" d="M251.5,347.9v-44.5h7v44.5H251.5z"/>
			<path class="st0" d="M262.6,303.4h34v6.9h-13.4v37.6h-7v-37.6h-13.5L262.6,303.4L262.6,303.4z"/>
			<path class="st0" d="M332.9,347.9h-4.8c-0.9,0-1.7-0.2-2.5-0.7c-0.7-0.5-1.3-1.1-1.6-2l-3.1-7h-21.3l-3.1,7
				c-0.3,0.8-0.9,1.5-1.6,2s-1.5,0.7-2.4,0.7h-4.7l19.4-44.5h6.2L332.9,347.9z M318.2,331.8l-6.5-15c-0.5-1.1-0.8-2-1-2.6
				s-0.2-1.3-0.2-2h-0.3c0,0.7-0.1,1.4-0.2,2s-0.4,1.5-0.9,2.6l-6.5,15H318.2z"/>
			<path id="accento_00000042007423160514827840000011027068181216656529_" class="st0" d="M300,287.6c0.7,1.9,2.3,5.2,3.2,7.2
				c0.6,1.3,1.9,3.1,3.8,3.1c2.5,0,3.3,0,4.1,0c-0.5-1.1-2.3-5.6-3.5-7.7c-1.1-2.1-2.9-2.6-4.2-2.6C302.1,287.5,300,287.6,300,287.6
				z"/>
		</g>
	</g>
	<g>
		<g>
			<path class="st1" d="M176.9,235c-0.4-1-1-1.9-1.7-2.4s-1.5-0.8-2.5-0.7c-1,0-1.7,0.4-2.4,1c-0.6,0.6-1.1,1.5-1.4,2.6
				c-0.3,1.1-0.4,2.4-0.3,3.9c0.1,1.5,0.3,2.8,0.8,3.9c0.4,1,1,1.9,1.7,2.4s1.5,0.8,2.5,0.7c1,0,1.7-0.4,2.4-1
				c0.6-0.6,1.1-1.5,1.4-2.6c0.3-1.1,0.4-2.4,0.3-3.9C177.6,237.3,177.4,236,176.9,235z"/>
			<path class="st1" d="M54.5,118.9c-0.4-0.3-1-0.5-1.5-0.5s-1.1,0-1.6,0.3c-0.5,0.2-0.9,0.6-1.1,1.1s-0.4,1-0.5,1.6l-0.2,4l6,0.4
				l0.2-4c0-0.6,0-1.1-0.3-1.6C55.3,119.6,55,119.3,54.5,118.9z"/>
			<path class="st1" d="M192,230.7c0,0.2-0.1,0.4-0.1,0.6l-3,7.9c-0.1,0.2-0.2,0.4-0.3,0.6c-0.1,0.2-0.3,0.3-0.4,0.4l6.1-1.5
				l-2.1-8.5C192,230.3,192,230.5,192,230.7z"/>
			<path class="st1" d="M186.8,28c1.1-0.4,2.1-1.1,2.9-2.1c0.8-1,1.3-2.1,1.5-3.4s0.1-2.5-0.3-3.7c-0.4-1.2-1.1-2.1-2-3
				c-1-0.8-2-1.3-3.3-1.5l-4.6-0.8l-2.4,14l4.6,0.8C184.4,28.5,185.6,28.4,186.8,28z"/>
			<path class="st1" d="M257.8,62c0.2-0.5,0.5-0.8,0.7-1s0.4-0.4,0.7-0.6l-0.1-0.1c-0.3,0.2-0.5,0.3-0.8,0.5
				c-0.3,0.1-0.7,0.2-1.2,0.4l-7.2,1.7l4.2,5.7L257.8,62z"/>
			<path class="st1" d="M74,63c-0.5-0.1-0.9-0.2-1.2-0.3c-0.3-0.1-0.5-0.2-0.8-0.4l-0.1,0.1c0.2,0.2,0.5,0.4,0.7,0.6
				c0.2,0.2,0.4,0.6,0.7,1l3.8,6.3l4.1-5.8L74,63z"/>
			<path class="st1" d="M273.9,102.3c0.4,0.4,0.8,0.7,1.3,0.8c0.5,0.1,1,0.1,1.6,0s1-0.4,1.4-0.8s0.6-0.9,0.7-1.4s0.1-1.1,0-1.7
				l-1-3.9l-5.8,1.6l1,3.9C273.3,101.4,273.6,101.9,273.9,102.3z"/>
			<path class="st1" d="M166.2,41.6c-48.4,0-87.9,39.4-87.9,87.9s39.4,87.9,87.9,87.9s87.9-39.4,87.9-87.9S214.6,41.6,166.2,41.6z
				 M181.8,80c6.4-0.5,7.7-7,4.1-9.9c-2.6-2.1-3.1-5.2-0.7-6.2c6.1-2.5,8.2-8,8.4-13.4c1.3,0.6,2.5,1,2.2,3
				c-0.2,1.6-1.7,6.7-4.6,9.4c0.3,0.4,0.6,0.4,1,1c4.7-3.1,6.3-6.6,7.2-9.5c0.9,0.8,2,1.9,1.4,3.2s-3.3,6-7,8.1
				c0.3,0.5,0.5,0.7,0.8,1.2c3.6-1.2,8.3-5.6,9.2-7.7c0.4,0.8,1.6,2,0.6,3.3c-1.6,2.1-4.9,4.9-8.7,6.5c0.1,0.3,0.4,1.1,0.5,1.5
				c5.3-1.4,8.8-3.7,10.8-5.4c0.6,1.5,0.8,2.3-0.2,3.2c-1,0.8-6.4,4.1-10.1,4.6c0.1,0.5,0,1.1,0.1,1.5c4.6,0.1,9.8-2.2,11.7-3.4
				c0.2,0.5,0.4,2.6-0.6,3.1s-6,2.9-11.3,2.7c0,0.1-0.3,1.3-0.3,1.6c4.2,1,10.6-0.3,12.3-1c-0.1,1.3,0,2.5-1.8,3
				c-1.9,0.5-7.5,1.3-11.4,0.2c-0.1,0.3-0.5,1-0.8,1.3c2,0.9,6.8,2.5,12.3,1.6c-0.4,1-0.8,2.5-2.3,2.6c-3.5,0.3-9-0.9-11.3-2.3
				c-0.3,0.3-0.7,0.8-1,1c1.5,1.2,5.8,4.1,11.7,4.4c-0.4,0.9-1.5,2.4-3.2,2.1c-3.6-0.8-7.5-2.4-10.5-5c-0.7,0.4-1,0.6-1.3,0.8
				c0.6,0.8,4.4,5.4,10.5,7.3c-1.6,1.1-2.8,1.5-4.4,0.7c-2.4-1.2-6-3.8-8.4-7.1c-0.8,0.2-1,0.3-1.4,0.4c0.7,1.5,3.1,5.7,6.8,8.5
				c-2.4,0.6-3.4,0.1-4.3-0.8c-2.2-2.3-4.6-6.2-5-7.5c-0.8,0-1.1,0-1.8,0c0.6,3.5,2.5,7.1,4,9.2c-1.4,0.3-2.7,0.3-3,0
				c-1.4-2-3.1-5.9-3.5-9.2c-0.9,0-1.4,0.2-1.6,0.3c-0.1,4.4,1.3,9.1,2.5,11.3c-0.8,0.6-1.2,1.2-1.7,1.9c-1.3-2-3.1-7.1-3.1-12.1
				c-5.6,5.3,2.5,20.8,8.1,25.8c-1.4,0.5-2.1,0.9-3.1,1.1c-1-0.5-4.2-5.5-4.5-5.9c-0.8,0.2-1,0.2-1.6,0.4c0.3,0.8,2.7,5.7,3.4,6.3
				c-0.5,0.2-2.3,0.6-3.1,0.7c-5.6-16.8-18.2-29.2-8.3-41c0.1-0.1,0.2-0.2,0.3-0.3h-0.1c-1.1-0.3-3.6-1-4.2-1.2
				c0.7-0.3,3.5-5.9,3.1-7.9c-0.1-0.6-2.1-3.9-3.9-2.8c-0.1,0,0.5-2.8,2.1-2.9c1-0.1,1.9,0.8,2.5,0.9c0.6,0,0.4-0.2,0.4-0.6
				c0.1-0.1,0.2,0,0.3,0c8.4,2.3,7.1,9.4,7.9,11.8c-2.7,0-3.8,1-4.3,1.9c0,0.3,0,0.5,0,0.5C175.2,75.5,176.4,80.4,181.8,80z
				 M184.3,126.4c-0.6,0-2.1,0-2.6,0c0-0.2-1.5-3.7-1.6-3.9c0.7-0.1,2.8,0.2,3.1,0.7C183.5,123.8,184.2,125.9,184.3,126.4z
				 M179.6,126.5c-0.3,0-2,0-2.5,0c-0.1-0.3-1.2-3.3-2-4.6c0.4,0,2.7-0.2,3.1,0.8C178.5,123.4,179.5,125.7,179.6,126.5z M170.4,119
				c1.1-0.1,2.6-0.4,3-0.4c0.3,0.7,0.9,3.5,0.9,3.9c-0.9,0.8-2.5,3.9-2.7,3.9C171.8,124.4,170.7,119.7,170.4,119z M164.7,112.2
				c-0.1,0.6-0.5,6.5-0.7,6.9c-0.5,0-2-0.1-2.7-0.2c0.8-3.3,3.6-12.4,3.6-12.4s4.2,8.2,5.4,12.5c-0.6,0-2.5,0.2-2.8,0.2
				c0-0.3-1.1-6.6-1-7C165.8,112.3,165.1,112.2,164.7,112.2z M154.1,121c0.4-0.3,2.5-0.1,2.9,0.1c-0.7,1-2.5,3.7-2.6,4.4
				c-0.8-0.5-1.7-1.2-2-1.5C152.6,123.6,153.8,121.4,154.1,121z M150.7,123c-0.4-0.2-1.8-1-2-1.2c0.2-0.3,0.5-0.8,0.9-1.2
				c0.2-0.2,2-0.2,3,0.2C152,121.1,151.1,122.5,150.7,123z M155.9,117.8c0.3-0.2,2.5-5.7,2.8-6.4c-0.7-0.1-1-0.3-1.4-0.4
				c-0.3,0.4-3.3,5.2-4.3,6c-0.8-0.3-1.9-0.6-2.9-1.1c0.7-0.2,9.8-12.1,9.4-21.5c0.4,1.3,3.6,8.6,3.6,8.6s-4.5,14.1-4.7,15.4
				C157.4,118.2,156.5,118,155.9,117.8z M158.2,118.5h0.1l0,0c0.3,0,1.9,0.2,2.9,0.4c-0.3,1.2-1.2,4.8-1.5,7.6c0,0,0-0.2-0.1-0.4
				c0,0.1,0,0.2,0,0.4c-0.1-0.4-1.9-4.4-2.2-4.7C157.5,121.4,158.1,118.7,158.2,118.5z M162.2,56.2c-0.9,0.5-1.8,0.9-2.8,1.2
				c-0.3-2-1.9-3.3-2.3-4.6c0.2,0,0.4-0.1,0.6-0.1C158.9,54.3,161.3,54.5,162.2,56.2z M160.1,51.6c0.1-0.1,0.4-0.3,0.5-0.4
				c1.8,1,4.2,0.6,5.5,1.4c-0.6,0.8-1.2,1.5-2,2.2C162.9,52.9,161.3,52.6,160.1,51.6z M170.5,55.6l-1.2,0.4c0,0,0.6,1.8,0.8,3
				c-1.7,1.1,1.1,2.5,1,0.4c0.3-0.1,2.2-0.8,2.2-0.8v-1l1-0.2v1l-1,0.2c0,0,0,1.8,0,2.5c-1.9,0.8,0.5,2.6,0.8,0.6
				c0.3,0,2.9-0.1,2.9-0.1l-0.1-1.3c0,0,1.2,0,1.3,0c0,0-3.7,4.3-4.6,5.3c-2-3.5-6.2-4.8-6.4-4.9c0.2-0.5,2.8-6.3,2.8-6.3
				L170.5,55.6z M163.4,45.6c0.9,0,1.7,0,2.5,0c0.9,0,1.7,0,2.5,0c0,0,0,0,0,0.1c-1.9,0.1-4.2,0.9-5.1,0.9
				C163.3,46.2,163.4,45.8,163.4,45.6z M162.5,49c1.8,0,3.6-0.9,5.6-0.9c-0.2,0.9-0.5,1.8-0.9,2.6c-2.1-1.2-4-0.8-5.1-1.1
				C162.3,49.3,162.4,49.1,162.5,49z M161,45.7c-0.1,2.7-2.3,4.9-5,4.9c-2.3,0-4.2-1.6-4.8-3.7C154.4,46.2,157.7,45.8,161,45.7z
				 M154,52.6c0.3,0.1,0.5,0.1,0.8,0.2c0.5,2.5,2.2,3.5,2.4,5.1c-0.4,0-0.8,0-1.1,0c-0.7,0-1.4,0-2-0.2
				C154.6,55.8,154,54.1,154,52.6z M151.6,51.4c-0.4,2.1,0.7,4.2,0.1,5.7c-1-0.4-1.9-0.9-2.8-1.4c1.4-1.4,1.5-3.5,2.2-4.7
				C151.2,51.2,151.4,51.3,151.6,51.4z M149.6,49.1c-1.7,2.1-1.2,4-2.4,5l0,0c-0.7-0.7-1.3-1.6-1.9-2.4c1.9-0.7,2.7-2.3,4.1-3
				C149.4,48.8,149.5,49,149.6,49.1z M146.6,47.8c-0.5,0.5-1.4,1.5-2.3,1.7c-0.1-0.3-0.2-0.7-0.3-1.1
				C144.8,48.2,145.7,48,146.6,47.8z M123.5,71c1.9,1.2,7.1,3.5,11.7,3.4c0-0.4,0-1,0.1-1.5c-3.7-0.5-9.2-3.8-10.1-4.6
				c-1-0.8-0.9-1.7-0.2-3.2c2,1.7,5.4,4,10.8,5.4c0.1-0.4,0.4-1.2,0.5-1.5c-3.8-1.6-7.1-4.3-8.7-6.5c-1-1.4,0.1-2.6,0.6-3.3
				c0.8,2,5.6,6.4,9.2,7.7c0.3-0.5,0.5-0.7,0.8-1.2c-3.7-2.1-6.4-6.8-7-8.1s0.5-2.4,1.4-3.2c0.9,2.9,2.5,6.4,7.2,9.5
				c0.5-0.6,0.8-0.5,1-1c-3-2.7-4.4-7.8-4.6-9.4c-0.3-1.9,0.9-2.3,2.2-3c0.2,5.4,2.3,10.8,8.4,13.4c2.4,1,2,4.1-0.7,6.2
				c-3.7,2.9-2.4,9.4,4.1,9.9c3.3,0.3,5.7-2.7,10.8-4c-0.6,0.6-1,1.3-2,2.4c0.4,0.1,1,0.4,1.7,0.4c-3.1,5.3-2,11.1-1.7,12.4
				c-0.4-1-0.9-1.2-1.2-1.2c0,5-1.9,10.1-3.1,12.1c-0.5-0.7-0.9-1.3-1.7-1.9c1.2-2.2,2.6-6.9,2.5-11.3c-0.2,0-0.8-0.2-1.6-0.3
				c-0.4,3.3-2.1,7.2-3.5,9.2c-0.2,0.3-1.5,0.3-3,0c1.5-2.1,3.4-5.7,4-9.2c-0.6,0-1,0-1.8,0c-0.4,1.3-2.8,5.2-5,7.5
				c-0.9,0.9-2,1.3-4.3,0.8c3.6-2.9,6.1-7.1,6.8-8.5c-0.4-0.1-0.7-0.1-1.4-0.4c-2.5,3.3-6,5.9-8.4,7.1c-1.6,0.8-2.8,0.4-4.4-0.7
				c6.1-2,9.9-6.6,10.5-7.3c-0.4-0.2-0.7-0.4-1.3-0.8c-3,2.6-6.9,4.2-10.5,5c-1.7,0.4-2.8-1.2-3.2-2.1c6-0.3,10.2-3.2,11.7-4.4
				c-0.3-0.2-0.7-0.7-1-1c-2.4,1.4-7.8,2.5-11.3,2.3c-1.6-0.1-2-1.7-2.3-2.6c5.4,0.9,10.3-0.7,12.3-1.6c-0.2-0.4-0.6-1-0.8-1.3
				c-4,1-9.6,0.3-11.4-0.2c-1.8-0.5-1.7-1.6-1.8-3c1.8,0.7,8.2,2,12.3,1c0-0.2-0.3-1.4-0.3-1.6c-5.3,0.1-10.3-2.2-11.3-2.7
				C123.1,73.6,123.2,71.5,123.5,71z M119.8,96.8c2.8-0.3,11.3,0.1,10.5,7.9c-3.4,1.4-4.5,2-4.5,2c2-6.7-3.1-8.7-6.3-9.1
				C118.3,97.4,118.4,96.9,119.8,96.8z M124.2,110.8c2.3-1.6,10.2-4.7,13.2-5.5c1.6-0.4,3.8-1.6,5.3-2c1-0.3,2,0,2.5,0.6
				c0.1,0.2,0,0.8,0.2,1s3.2,2.3,3.1,3.1c-0.3,1.9-0.8,2-1.2,2.7c-0.9,1.8-1.7,3.8-3.4,6.8c-4.3,12.6-11.8,5.6-13.6,3.3
				c-1.1,1.8-3.4,9.3-4.9,11.9c4.9-1.5,5.5-5.1,5.5-7.1c0.6,0.6,4.1,2.7,7.4,2c-2.1,2.9-12.8,10.9-6.6,23.1
				c0.1-3.6-0.2-6.5,1.5-11.8c1.9-5.8,9.7-9.4,11.4-15.9c0,0,0.4,0.1,1.3,0.4c3,1,7.2,5.5,8.5,5.6c1.7,0.2,37.4,0.1,40.1,0.1
				c3.2,0,8.9-3.2,15-0.7c18.1,7.4,15.5,31.9,0.7,36.7c0.9-1.6,1.7-3.1,2.1-4.3c-3,1.9-3.7,1.6-6.1,2.5c-0.6,0.2-1.4,1.2-1.1,2.9
				c0.3,2,0.9,4.1-0.2,5.6c-0.9,1.1-18.1-0.4-19.6,0.5c-2.1,1.3-2.7,2.4-6,2.4c0.2-0.6,0.4-2-1.1-1.9c-2.7,0.2-1,4.1-3.2,4.9
				c-0.5,0.2-0.9,0-1.2,0.1c-1.1,0.4-1.2,1.8-1.3,2.6c-0.7,0-9.8,0.1-10.8,0c1-3.1,3.1-4.9,3.7-5.1c-0.4-0.1-0.7,0-0.8-0.8
				c3-0.4,3-2,4.8-3.2c1-0.7,2.4-1.4,4-2.4c1.4-0.9,3.8-2.2,5.1-3c-14.9-1.9-13.7-12.5-10.9-18.7c5.5-0.9,5.8-7.1,5.4-8.5
				c-0.4-1.5-0.6-3.9-0.6-6.8c-2.3,6.5-4.5,6.3-8,14.5c-4,9.4-0.4,16.6,4.3,19.5h-8.1c0.4-6.8-1.5-8.2-2.4-9.7
				c-1-1.6,0.1-11.8-1.5-14.2c-0.6-0.9-3.8-2.4-5-2.4c4.8,4.1,2,13.1,3.8,17.5c0.8,1.9,2.6,2.4,2.3,8.6c-2,0.2-22.7,0.2-23.8,0.2
				c1.8-1.5-1.1-4.2-3.2,0c-0.4,0.9-0.7,1.1-1.9,2c-1.1-0.1-9.2,0.1-10.2,0c0.2-1.2,3-3.9,4.3-4.7c-0.3-0.3-1.1,0.1-0.9-0.9
				c0.4,0,1.2-0.1,2.3-0.8c1.1-0.6,1.1-2.1,4.6-2.6c-4-1.6-6.6-7.7-7.2-11.6c-1.8-2.7-6.1-9.7-5.8-16.1c8.2,0.1,10.3-8.9,11.3-11.4
				c1-2.3-2.6-5.2-4.2-1c-1.1,3.1-3.1,8.2-6.7,8.7C116.9,126.3,123.3,114.2,124.2,110.8z M226.1,177c-1.4-0.3-2.5-0.4-3.6-0.2
				c-0.9-1.3-5.8-9.5-6.6-10.8c0.8-0.4,2.3-1.7,2.3-1.7C219.1,165.5,225.3,175.8,226.1,177z M160.7,166.4c0,0-1,12.9-1,13.8
				c-0.9-0.8-1.8-1.2-2.8-1.5c0.1-1.1,1-12.3,1-12.3H160.7z M136.3,177.6c-2,0.8-5.1,0.5-5.8,0c0.8-0.7,2.4-2.2,2.2-2.8
				c-1.1-0.1-3.7,0.8-4.3,1c-0.6-1.3,0-3,1.4-4.1c1.2,0.6,2.8,1.2,3.6,1c0.4-1-0.1-2.3-0.2-2.8c0.6-0.3,4.3-0.7,5.4,0.1
				c-0.5,0.5-2.1,1.9-2.2,2.8c0.9,0,3.1-0.5,4.2-1c0.8,1.2,0,3-1.3,4.1c-1-0.6-2.8-1-3.7-1C135.5,175.8,135.9,176.8,136.3,177.6z
				 M106.9,126c0.1-0.1,0.4-0.2,0.6-0.2c1.7,0.7,5.7,2.2,9.1,2.3c-0.4,1.2-0.6,2.9-0.5,3.7C111.9,131.2,105.8,127,106.9,126z
				 M96.1,162.9c0.8-3.1,4.4-4.7,4-4.9c-0.4,0-0.9,0.1-0.9-0.5c1.1,0,2.4-1.6,3.4-2.2c1.2-0.8,4-1.2,5.6-1.7c1.7-0.5,7.4-4,10.9-4.4
				c-0.1,1.6,2.5,7.6,4,9.1c-2.5,1-10.7,1-11.5,1.1c1.1-1.3-1.3-3.3-3,0c-0.5,1-0.5,2-2,3.5C105.3,163,98.4,162.9,96.1,162.9z
				 M190.7,204.4c-3.8,0-48.2,0-48.2,0v-8.6h-3l1.2-5.6c-14.3,0-33.7,0-33.7,0v-8.6h-3.4l11.7-19.2c1.4-0.1,1.8-0.1,3.6-0.2
				c-1.4,2.2-12,19.5-11.8,19.4c0,0,43.6,0,47.9,0c5.6,0,5.4,8.6,0.3,8.6c-1.1,0-5.7,0-11.6,0l-1.2,5.6c0,0,43.6,0,47.9,0
				C196,195.7,195.8,204.4,190.7,204.4z M225.5,188.1c-2.3,0-20.3,0-33.7,0c0.1,0.6,1,4.3,1.2,5.3c-1-0.4-2.4-0.6-3.1-0.6
				c-0.2-1-1-4.2-1.1-4.7c-6.7,0-11.6,0-11.6,0v-8.6c0,0,43.6,0,47.9,0C230.8,179.5,230.6,188.1,225.5,188.1z"/>
			<path class="st1" d="M155.6,233.9l-5.6,6.3c-0.1,0.1-0.3,0.3-0.5,0.4c-0.2,0.1-0.4,0.2-0.5,0.2l6.2,0.7l1-8.7
				c0,0.2-0.1,0.3-0.2,0.5C155.9,233.6,155.7,233.8,155.6,233.9z"/>
			<path class="st1" d="M166.2,0C94.7,0,36.8,58,36.8,129.5S94.7,259,166.2,259s129.4-58,129.4-129.5S237.7,0,166.2,0z M285.1,115.1
				l-19.9,2.7l-0.4-3.1l19.9-2.7L285.1,115.1z M281.9,98.6c0.3,1.1,0.3,2.2,0,3.2c-0.2,1-0.8,2-1.5,2.8c-0.8,0.8-1.7,1.3-2.8,1.6
				c-1,0.3-1.9,0.3-2.9,0c-0.9-0.2-1.7-0.7-2.4-1.2c-0.7-0.6-1.1-1.2-1.3-1.9l-0.1-0.4l0,0c0,0.4,0,0.8,0,1c0,0.3-0.2,0.6-0.4,0.8
				l-5.9,7.5l-0.7-2.4c-0.1-0.4-0.1-0.8-0.1-1.1c0-0.4,0.2-0.7,0.5-1.1l5.3-6.8l-0.8-2.8l-7.6,2.1l-0.9-3.1l19.4-5.3L281.9,98.6z
				 M271.5,72.3l-11,5.4c-0.9,0.4-1.6,1-2,1.7c-0.5,0.7-0.8,1.5-0.8,2.3c0,0.9,0.1,1.7,0.6,2.6c0.4,0.9,1,1.6,1.7,2.1
				s1.5,0.8,2.3,0.8c0.9,0,1.7-0.1,2.6-0.6l11-5.4l1.4,2.9l-11,5.4c-1.4,0.7-2.9,1-4.2,1c-1.4,0-2.7-0.5-3.9-1.3
				c-1.1-0.8-2.1-2-2.8-3.4c-0.7-1.4-1-2.9-1-4.3s0.5-2.7,1.3-3.8c0.8-1.1,1.9-2.1,3.3-2.8l11-5.4L271.5,72.3z M261.4,56.8l1.7,2.2
				l-10.9,19.1l-1.3-1.7c-0.2-0.3-0.4-0.7-0.4-1.1s0-0.8,0.3-1.1l1.7-3l-5.8-7.7l-3.4,0.8c-0.4,0.1-0.8,0.1-1.1,0
				c-0.4-0.1-0.7-0.4-0.9-0.7l-1.3-1.7L261.4,56.8z M243,41.3l2.2-2.2L256.1,50l-2.2,2.2l-4.3-4.3l-12,12.1l-2.2-2.2l12-12.1
				L243,41.3z M214.7,20l-7.9,18.5l-2.9-1.2l7.9-18.5L214.7,20z M202.2,15.3l3,1l-6.3,19.1l-3-1L202.2,15.3z M178.4,10.1l7.7,1.3
				c1.8,0.3,3.4,1,4.8,2.2c1.4,1.1,2.4,2.5,3,4.2c0.6,1.7,0.8,3.4,0.5,5.2c-0.3,1.8-1,3.4-2.2,4.8c-1.1,1.4-2.6,2.3-4.2,3
				c-1.7,0.6-3.4,0.8-5.2,0.5l-7.7-1.3L178.4,10.1z M157.1,10l0.4,12.3c0,1,0.3,1.8,0.7,2.6c0.4,0.7,1,1.3,1.8,1.7
				c0.8,0.4,1.6,0.6,2.6,0.5c1,0,1.9-0.3,2.6-0.7s1.3-1,1.7-1.8s0.6-1.6,0.5-2.6L167,9.7l3.2-0.1l0.4,12.3c0,1.6-0.2,3-0.9,4.2
				s-1.6,2.2-2.8,3c-1.2,0.7-2.6,1.1-4.2,1.1s-3.1-0.2-4.3-0.9s-2.2-1.6-3-2.8c-0.7-1.2-1.1-2.6-1.1-4.2L154,10H157.1z M148.5,10.8
				l0.7,3.1l-6,1.3l3.6,16.6l-3.1,0.7l-3.6-16.6l-6,1.3l-0.7-3.1L148.5,10.8z M119.2,21.8c0.2-1,0.6-1.8,1.3-2.6
				c0.7-0.8,1.6-1.3,2.7-1.8c0.9-0.3,1.9-0.5,2.9-0.5s2,0.2,2.8,0.6l-0.2,1.1c0,0.3-0.2,0.6-0.3,0.9c-0.2,0.2-0.4,0.4-0.7,0.5
				c-0.2,0.1-0.5,0.1-0.7,0.1c-0.5-0.1-1-0.1-1.5-0.1s-0.9,0.1-1.2,0.3c-0.8,0.3-1.4,0.8-1.8,1.3c-0.3,0.6-0.4,1.2-0.1,1.9
				c0.2,0.5,0.6,0.9,1.3,1.1s1.6,0.3,2.9,0.2c2.1-0.1,3.8,0.1,5.1,0.8c1.3,0.6,2.2,1.6,2.7,3c0.4,1.1,0.5,2.2,0.3,3.3
				s-0.7,2-1.5,2.9s-1.8,1.5-3.1,2c-1.1,0.4-2.4,0.6-3.6,0.5c-1.2-0.1-2.4-0.4-3.5-1l0.2-1.3c0-0.2,0.1-0.4,0.3-0.6
				c0.1-0.2,0.4-0.3,0.6-0.4c0.3-0.1,0.7-0.1,1,0c0.7,0.1,1.4,0.2,2.1,0.3c0.8,0,1.3,0,1.8-0.2c1-0.4,1.8-1,2.2-1.7s0.5-1.5,0.1-2.4
				c-0.2-0.6-0.7-1-1.4-1.3s-1.8-0.4-3.1-0.4c-2,0-3.7-0.2-4.9-0.8c-1.2-0.5-2-1.4-2.5-2.6C119.1,23.7,119,22.8,119.2,21.8z
				 M80.4,46.6c0.3-1,1-1.9,1.8-2.7c0.7-0.7,1.5-1.2,2.5-1.6c1-0.4,1.9-0.6,2.9-0.6l0.3,1.1c0.1,0.3,0.1,0.7,0,1
				c-0.1,0.3-0.2,0.6-0.4,0.8c-0.2,0.2-0.4,0.3-0.6,0.4c-0.5,0.1-1,0.2-1.4,0.5c-0.4,0.2-0.8,0.5-1,0.8c-0.6,0.6-1,1.2-1,1.9
				c-0.1,0.7,0.1,1.3,0.6,1.8c0.4,0.4,1,0.6,1.6,0.5c0.7,0,1.6-0.4,2.7-0.9c1.9-1,3.5-1.4,5-1.3c1.5,0.1,2.7,0.6,3.7,1.7
				c0.9,0.9,1.4,1.8,1.6,2.9c0.2,1.1,0.1,2.1-0.2,3.3c-0.4,1.1-1,2.1-2,3.1c-0.9,0.9-1.9,1.5-3.1,1.9s-2.4,0.6-3.6,0.5l-0.3-1.3
				c0-0.2,0-0.5,0-0.7c0.1-0.2,0.2-0.4,0.4-0.6c0.2-0.2,0.6-0.4,0.9-0.5c0.7-0.1,1.4-0.3,2-0.6c0.7-0.3,1.2-0.6,1.6-1
				c0.8-0.8,1.2-1.6,1.3-2.4c0.1-0.9-0.2-1.6-0.9-2.3c-0.5-0.5-1.1-0.7-1.9-0.7s-1.8,0.3-3.1,0.9c-1.9,0.9-3.5,1.3-4.8,1.2
				c-1.3,0-2.4-0.5-3.3-1.4c-0.8-0.8-1.2-1.6-1.4-2.6C80,48.5,80.1,47.5,80.4,46.6z M69.6,58.8l21.5,4.5l-1.2,1.8
				c-0.2,0.3-0.5,0.6-0.9,0.7c-0.4,0.1-0.8,0.2-1.1,0.1l-3.4-0.7L78.8,73l1.8,3c0.2,0.3,0.3,0.7,0.3,1.1s-0.1,0.8-0.4,1.1L79.3,80
				L68,61.2L69.6,58.8z M63,68.2l2.8,1.4L63,75l15.2,7.7l-1.4,2.8l-15.2-7.7l-2.8,5.5L56,81.9L63,68.2z M54.3,86.9l18.9,6.9l-1.1,3
				l-18.9-6.9L54.3,86.9z M49.5,101.8c0.2-1,0.6-1.8,1.2-2.7c0.6-0.9,1.3-1.5,2.1-2l0.8,0.8c0.2,0.2,0.4,0.5,0.5,0.8s0.1,0.6,0,0.9
				c0,0.2-0.1,0.4-0.3,0.7c-0.4,0.3-0.7,0.7-0.9,1.1c-0.2,0.4-0.4,0.8-0.5,1.2c-0.2,0.9-0.1,1.6,0.1,2.2c0.3,0.6,0.8,1,1.5,1.2
				c0.5,0.1,1.1,0,1.6-0.4s1.1-1.1,1.8-2.2c1.1-1.8,2.2-3.1,3.5-3.8c1.2-0.7,2.6-0.9,4-0.6c1.1,0.3,2.1,0.8,2.9,1.6
				c0.8,0.8,1.3,1.8,1.6,2.9c0.2,1.1,0.2,2.4-0.1,3.7c-0.3,1.2-0.8,2.3-1.6,3.3c-0.8,1-1.8,1.8-2.8,2.4l-1-1
				c-0.2-0.2-0.3-0.4-0.3-0.6s0-0.5,0-0.8c0.1-0.3,0.2-0.7,0.5-0.9c0.5-0.5,1-1,1.4-1.6c0.4-0.6,0.7-1.1,0.8-1.6
				c0.2-1.1,0.2-2-0.1-2.8c-0.3-0.8-1-1.3-2-1.5c-0.7-0.1-1.3,0-2,0.4c-0.6,0.4-1.3,1.2-2.1,2.4c-1.1,1.7-2.2,3-3.4,3.6
				c-1.1,0.7-2.3,0.9-3.5,0.6c-1-0.2-1.9-0.7-2.6-1.4c-0.7-0.7-1.1-1.5-1.4-2.5C49.2,104.1,49.2,103,49.5,101.8z M46.7,121.1
				c0.1-1.1,0.4-2.2,1-3.1s1.4-1.6,2.3-2.1c1-0.5,2-0.7,3.1-0.6c1,0,1.9,0.4,2.7,0.9c0.8,0.5,1.4,1.2,1.8,2s0.6,1.5,0.6,2.2v0.4l0,0
				c0.1-0.4,0.2-0.8,0.3-1c0.1-0.2,0.4-0.5,0.7-0.6l8.1-5.1l-0.1,2.5c0,0.4-0.1,0.8-0.3,1.1c-0.2,0.3-0.4,0.6-0.9,0.9l-7.2,4.7
				l-0.2,2.9l7.9,0.5l-0.2,3.2l-20.1-1.3L46.7,121.1z M46.4,135.4l3.1-0.3l1,9.4l5.1-0.6l-0.8-7.7l3.1-0.3l0.8,7.7l5.6-0.6l-1-9.4
				l3.1-0.3l1.3,12.6l-20,2.1L46.4,135.4z M53.6,171c-0.1-0.4-0.1-0.8,0-1.1c0.1-0.4,0.3-0.7,0.6-1l10.6-8.9c0.6-0.5,1.3-1,2.2-1.3
				v-0.1c-1,0.2-1.8,0.2-2.6,0.1L50.6,157c-0.4,0-0.8-0.2-1-0.5c-0.3-0.2-0.5-0.6-0.6-1l-0.6-2l21.8,2.7l0.8,2.7L54.1,173L53.6,171z
				 M56.5,177.5l18.3-8.3l1.3,2.9l-18.3,8.3L56.5,177.5z M70.2,201.7l-1.3-2.1c-0.2-0.3-0.3-0.7-0.4-1c0-0.3,0-0.7,0.2-1.1l6.6-15.8
				l0,0c-0.4,0.7-1,1.2-1.6,1.6l-10.9,7l-1.7-2.7l16.9-11l1.3,2c0.1,0.1,0.1,0.3,0.1,0.6s0,0.5-0.1,0.7l-7.2,17l0,0
				c0.4-0.6,0.9-1.1,1.5-1.5l11.6-7.5l1.7,2.7L70.2,201.7z M97.8,207.3c-0.4,1.3-1.1,2.6-2.3,3.7l-8.7,8.6l-2.2-2.2l8.7-8.6
				c0.7-0.7,1.1-1.4,1.4-2.2c0.2-0.8,0.2-1.6,0-2.5c-0.2-0.8-0.7-1.6-1.4-2.3s-1.5-1.2-2.3-1.4s-1.7-0.2-2.5,0s-1.6,0.7-2.3,1.4
				l-8.7,8.6l-2.2-2.2l8.7-8.6c1.1-1.1,2.4-1.9,3.7-2.2c1.3-0.4,2.7-0.4,4.1,0c1.3,0.4,2.6,1.2,3.7,2.3s1.9,2.4,2.3,3.7
				C98.3,204.6,98.3,205.9,97.8,207.3z M138.4,246.3l-3-0.8l4.1-15.4c-0.1,0.2-0.4,0.4-0.6,0.6l-1.5,0.9c-0.2,0.1-0.5,0.2-0.7,0.2
				s-0.4,0-0.7,0c-0.4-0.1-0.7-0.3-0.9-0.7l-0.7-1.3l6.1-3.6l2.9,0.8L138.4,246.3z M160.8,245.3L158,245l-0.5,4.2l-3.1-0.3l0.5-4.2
				l-9.2-1l0.1-2.5c0-0.1,0-0.3,0.1-0.5s0.2-0.3,0.3-0.5l9.2-10.6c0.2-0.2,0.4-0.4,0.7-0.5s0.5-0.2,0.7-0.1l3,0.3l-1.4,12.7l2.8,0.3
				L160.8,245.3z M180.2,244.2c-0.5,1.6-1.3,2.8-2.4,3.7c-1.1,0.9-2.4,1.4-4,1.5s-3-0.2-4.1-1c-1.2-0.8-2.1-1.9-2.8-3.4
				s-1.1-3.3-1.2-5.4c-0.1-2.1,0-4,0.6-5.6c0.5-1.6,1.3-2.8,2.4-3.7c1.1-0.9,2.4-1.4,4-1.5s3,0.2,4.1,1c1.2,0.8,2.1,1.9,2.9,3.4
				c0.7,1.5,1.1,3.3,1.2,5.4C180.9,240.7,180.7,242.6,180.2,244.2z M198.9,245l-3,0.8l-1-4.1l-9,2.2l-0.8-2.4c0-0.1,0-0.3,0-0.5
				s0-0.4,0.1-0.5l5-13.1c0.1-0.3,0.2-0.5,0.4-0.7s0.4-0.3,0.6-0.4l2.9-0.7l3.1,12.4l2.7-0.7l0.8,3L198,241L198.9,245z M166.2,220.5
				c-50.1,0-91-40.8-91-91s40.9-91,91-91s91,40.8,91,91S216.3,220.5,166.2,220.5z M250.3,214.2c-0.3,1-1,1.9-1.8,2.7
				c-0.7,0.7-1.5,1.2-2.5,1.6c-1,0.4-1.9,0.6-2.9,0.5l-0.3-1.1c-0.1-0.3-0.1-0.7,0-1s0.2-0.6,0.4-0.8c0.2-0.2,0.4-0.3,0.6-0.4
				c0.5-0.1,1-0.2,1.4-0.5c0.4-0.2,0.8-0.5,1-0.7c0.6-0.6,1-1.2,1.1-1.9s-0.1-1.3-0.6-1.8c-0.4-0.4-0.9-0.6-1.6-0.5
				c-0.7,0-1.6,0.3-2.7,0.9c-1.9,0.9-3.6,1.3-5,1.2s-2.7-0.7-3.7-1.7c-0.8-0.9-1.3-1.9-1.5-2.9c-0.2-1.1-0.1-2.1,0.3-3.2
				c0.4-1.1,1.1-2.1,2.1-3.1c0.9-0.9,2-1.5,3.1-1.8c1.2-0.4,2.4-0.5,3.7-0.4l0.3,1.3c0,0.2,0,0.5,0,0.7c-0.1,0.2-0.2,0.4-0.4,0.6
				c-0.3,0.2-0.6,0.4-1,0.5c-0.7,0.1-1.4,0.3-2,0.6c-0.7,0.3-1.2,0.6-1.6,0.9c-0.8,0.8-1.3,1.6-1.4,2.4c-0.1,0.9,0.1,1.6,0.8,2.3
				c0.5,0.5,1.1,0.7,1.9,0.7s1.8-0.3,3.1-0.8c1.9-0.8,3.5-1.2,4.8-1.1c1.3,0,2.4,0.5,3.3,1.4c0.7,0.8,1.2,1.6,1.4,2.6
				C250.8,212.3,250.7,213.2,250.3,214.2z M257.1,207.5l-15.4-12.9l2-2.4l15.4,12.9L257.1,207.5z M267.9,192.1c-0.1,1-0.5,2-1.1,3.1
				c-0.5,0.8-1.2,1.5-2,2.1c-0.9,0.6-1.8,1-2.7,1.1l-0.5-1c-0.1-0.3-0.2-0.6-0.2-0.9c0-0.3,0.1-0.6,0.2-0.8s0.3-0.4,0.5-0.5
				c0.5-0.2,0.9-0.5,1.2-0.8c0.4-0.3,0.7-0.7,0.9-1c0.5-0.7,0.7-1.4,0.6-2.1c0-0.7-0.4-1.2-1-1.6c-0.5-0.3-1-0.3-1.7-0.1
				s-1.5,0.7-2.5,1.4c-1.6,1.3-3.1,2.1-4.6,2.4c-1.4,0.2-2.7,0-4-0.8c-1-0.7-1.7-1.5-2.2-2.5s-0.6-2.1-0.5-3.2
				c0.1-1.1,0.6-2.3,1.3-3.4c0.7-1,1.6-1.9,2.7-2.5c1.1-0.7,2.2-1,3.4-1.3l0.6,1.2c0.1,0.2,0.1,0.5,0.1,0.7s-0.1,0.5-0.2,0.7
				c-0.2,0.3-0.5,0.5-0.8,0.7c-0.6,0.2-1.3,0.6-1.9,1s-1,0.9-1.3,1.2c-0.6,0.9-0.9,1.8-0.8,2.7c0,0.9,0.5,1.5,1.3,2
				c0.6,0.4,1.2,0.4,2,0.2s1.7-0.7,2.8-1.5c1.7-1.2,3.1-2,4.4-2.2s2.5,0,3.5,0.7c0.9,0.6,1.5,1.3,2,2.2
				C267.8,190.1,268,191.1,267.9,192.1z M279.1,170c-0.1,0.4-0.4,0.7-0.6,0.9s-0.6,0.4-1,0.5l-16.8,3.5l0,0c0.8,0,1.6,0.1,2.2,0.4
				l12,5l-1.2,2.9l-18.6-7.7l0.9-2.2c0.1-0.2,0.2-0.3,0.4-0.5c0.2-0.1,0.4-0.2,0.7-0.3l18.1-3.7l0,0c-0.7,0-1.4-0.1-2.1-0.4
				l-12.8-5.3l1.2-2.9l18.6,7.7L279.1,170z M282.1,160.6L279,160l1.9-9.3l-5.1-1l-1.6,7.6l-3-0.6l1.6-7.6l-5.5-1.1l-1.9,9.3
				l-3.1-0.6l2.6-12.4l19.7,4.1L282.1,160.6z M272.9,136.4l13,0.2v3.1l-20.1-0.3V137c0-0.2,0-0.4,0.2-0.6c0.1-0.2,0.3-0.4,0.5-0.5
				l15.4-10.1l0,0c-0.7,0.2-1.4,0.4-2.1,0.4l-13.9-0.2v-3.1l20.1,0.3v2.5c0,0.4-0.1,0.8-0.2,1c-0.1,0.3-0.4,0.6-0.8,0.8l-14.3,9.4
				l0,0C271.4,136.5,272.2,136.3,272.9,136.4z"/>
		</g>
		<path class="st1" d="M166.3,64.6c-0.3,0-1,0.1-0.6,0.4c0.3,0.2,0.7,1.3,1.3,1.4c0.3,0,0.1-0.4,0.3-0.4s0.6,0.7,0.8,0.5
			C168.4,66.1,167.3,64.8,166.3,64.6z"/>
		<path class="st1" d="M143.5,109.3c0.3-0.6-0.1-0.8-0.2-1.1c-0.1-0.4,0.1-0.6-0.3-0.8c-0.4-0.1-0.9,0.7-0.9,1.7
			C142.1,109.7,143.1,110.1,143.5,109.3z"/>
		<path class="st1" d="M135.2,117.5c0.2-0.6,0.1-1.5,0.1-1.9c0.1-1,0.8-2,0.3-2.2c-0.6-0.2-0.7,1-1.2,1.5s-2.6,2.1-1.4,3.6
			C133.5,119,134.8,118.4,135.2,117.5z"/>
		<path class="st1" d="M191.6,157.3c-1.6-2.1-6.6-10.9-4.9-16.3c1.4-4.6,8.8-5.3,13.8-4.2c-7-4.3-16-2-17,4.6
			c-0.9,5.4,2.4,12.6,4.1,15.2C188.7,156.9,190.5,157,191.6,157.3z"/>
		<path class="st1" d="M142.5,159.7c3.3-0.2,4.9-2.5,7.9-3.4c-3.5,0.4-9,0.4-10.2,0.6c-1,0.2-5.7,2-7.4,2.7
			C134.4,159.6,141.2,159.8,142.5,159.7z"/>
		<path class="st1" d="M142.9,153.8c-0.3-1.7-0.5-2.3-0.8-3.4c-7-3.2-4.8-13.8,1.6-15.1C131.3,135.4,133,153,142.9,153.8z"/>
		<path class="st1" d="M186.1,166.4c2-0.1,5.2-1.4,6.3-2.7c-2.1,0-8-0.3-8.6,0c-2,0.5-3.3,1.4-5.5,2.7
			C179.3,166.2,183.4,166.6,186.1,166.4z"/>
		<path class="st1" d="M207.3,131c-0.2,0-1,0.4-0.4,1.2c6.9,8.7,7.9,22.9,5.6,28.7C224.1,152.5,220.6,134.3,207.3,131z"/>
	</g>
</g>
</svg>
